<svg xmlns="http://www.w3.org/2000/svg" xml:space="preserve" style="enable-background:new 0 0 460 460" viewBox="0 0 460 460"><path d="M230 0C102.974 0 0 102.975 0 230c0 98.103 61.42 181.86 147.904 214.916L444.92 147.915C411.867 61.425 328.107 0 230 0z" style="fill:#940030"/><path d="M460 230c0-28.921-5.353-56.588-15.097-82.083l-66.408-66.409L81.506 378.496l66.403 66.403C173.407 454.646 201.076 460 230 460c127.026 0 230-102.975 230-230z" style="fill:#121149"/><path d="m94.456 174.141-35.163 35.163 38.281 38.281 48.843-20.558 24.604-52.889z" style="fill:#c2fbff"/><path d="m285.861 365.546-35.162 35.163-38.281-38.281 20.558-48.842 52.888-24.605z" style="fill:#71e2f0"/><path d="m129.255 316.605-47.749 61.891 38.112-2.565 8.762 26.785 36.419-36.42z" style="fill:#c2001b"/><path d="m136.326 323.677-42.619-28.474-36.42 36.419 26.784 8.763-2.565 38.111z" style="fill:#ff0f27"/><path d="m198.281 348.286-33.482 18.01-35.546-35.547 39.888-54.03z" style="fill:#71e2f0"/><path d="m176.212 283.79-46.959 46.959-35.546-35.546 18.01-33.481z" style="fill:#c2fbff"/><path d="M348.421 226.43 212.423 362.428l-50.353-50.353v-14.142L378.494 81.508c18.809 48.904 8.86 105.989-30.073 144.922z" style="fill:#61a2b3"/><path d="M378.494 81.508 162.07 297.932h-14.142l-50.353-50.353 135.998-135.998c38.933-38.933 96.018-48.882 144.921-30.073z" style="fill:#71e2f0"/><path d="M181.72 216.347h20v103.864h-20z" style="fill:#c2fbff" transform="rotate(-134.999 191.72 268.28)"/><path d="M342.756 117.246c19.528 19.528 19.528 51.183 0 70.711-19.524 19.524-51.183 19.528-70.711 0l27.499-43.212 43.212-27.499z" style="fill:#121149"/><path d="m342.756 117.246-70.711 70.711c-19.528-19.528-19.524-51.187 0-70.711 19.529-19.528 51.183-19.528 70.711 0z" style="fill:#940030"/><path d="M328.614 131.388c11.717 11.717 11.717 30.71 0 42.426-11.714 11.714-30.71 11.717-42.426 0l16.499-25.927 25.927-16.499z" style="fill:#c2fbff"/><path d="m328.614 131.388-42.426 42.426c-11.717-11.717-11.714-30.712 0-42.426 11.717-11.716 30.709-11.716 42.426 0z" style="fill:#fff"/></svg>